<svg width="512" height="512" viewBox="0 0 24 24" xmlns="http://www.w3.org/2000/svg">
    <rect width="24" height="24" rx="4" fill="hsl(266 68% 32%)" />
    <g fill="white">
        <title>ElEzz Market Logo</title>
        <defs>
            <mask id="text-mask-icon">
              <rect x="0" y="0" width="24" height="24" fill="white" />
              <text x="12" y="17.5" fontFamily="Cairo, sans-serif" fontWeight="bold" fontSize="8" text-anchor="middle" fill="black">العز</text>
            </mask>
        </defs>
        <path d="M2 7h20v2H2z" />
        <path d="M3 7h1v2H3z" />
        <path d="M5 7h1v2H5z" />
        <path d="M7 7h1v2H7z" />
        <path d="M9 7h1v2H9z" />
        <path d="M11 7h1v2H11z" />
        <path d="M13 7h1v2H13z" />
        <path d="M15 7h1v2H15z" />
        <path d="M17 7h1v2H17z" />
        <path d="M19 7h1v2H19z" />
        <path d="M21 7h1v2H21z" />
        <path d="M4 10h16v11H4z" mask="url(#text-mask-icon)" />
    </g>
</svg>
